{
	"asset":{
		"generator":"Khronos glTF Blender I/O v4.1.63",
		"version":"2.0"
	},
	"extensionsUsed":[
		"KHR_materials_specular"
	],
	"scene":0,
	"scenes":[
		{
			"name":"Scene",
			"nodes":[
				0
			]
		}
	],
	"nodes":[
		{
			"mesh":0,
			"name":"SoccerBall",
			"scale":[
				0.0010000000474974513,
				0.0010000000474974513,
				0.0010000000474974513
			],
			"translation":[
				0.4835624694824219,
				0,
				0.87567138671875
			]
		}
	],
	"materials":[
		{
			"doubleSided":true,
			"extensions":{
				"KHR_materials_specular":{
					"specularTexture":{
						"index":0
					}
				}
			},
			"name":"Ball_Euro_2020",
			"normalTexture":{
				"index":1
			},
			"pbrMetallicRoughness":{
				"baseColorTexture":{
					"index":2
				},
				"metallicRoughnessTexture":{
					"index":3
				}
			}
		}
	],
	"meshes":[
		{
			"name":"Soccerball",
			"primitives":[
				{
					"attributes":{
						"POSITION":0,
						"NORMAL":1,
						"TEXCOORD_0":2,
						"TANGENT":3
					},
					"indices":4,
					"material":0
				}
			]
		}
	],
	"textures":[
		{
			"sampler":0,
			"source":0
		},
		{
			"sampler":0,
			"source":1
		},
		{
			"sampler":0,
			"source":2
		},
		{
			"sampler":0,
			"source":3
		}
	],
	"images":[
		{
			"mimeType":"image/png",
			"name":"Untitled",
			"uri":"Untitled.png"
		},
		{
			"mimeType":"image/png",
			"name":"ball_euro_2020_PBR_fbx_euro_ball_2020_vray_Normal",
			"uri":"ball_euro_2020_PBR_fbx_euro_ball_2020_vray_Normal.png"
		},
		{
			"mimeType":"image/png",
			"name":"ball_euro_2020_PBR_fbx_euro_ball_2020_vray_AlbedoTransparency",
			"uri":"ball_euro_2020_PBR_fbx_euro_ball_2020_vray_AlbedoTransparency.png"
		},
		{
			"mimeType":"image/png",
			"name":"Untitled-0",
			"uri":"Untitled-0.png"
		}
	],
	"accessors":[
		{
			"bufferView":0,
			"componentType":5126,
			"count":6512,
			"max":[
				111.0514907836914,
				222.29537963867188,
				111.05192565917969
			],
			"min":[
				-111.05121612548828,
				0.18599998950958252,
				-111.05119323730469
			],
			"type":"VEC3"
		},
		{
			"bufferView":1,
			"componentType":5126,
			"count":6512,
			"type":"VEC3"
		},
		{
			"bufferView":2,
			"componentType":5126,
			"count":6512,
			"type":"VEC2"
		},
		{
			"bufferView":3,
			"componentType":5126,
			"count":6512,
			"type":"VEC4"
		},
		{
			"bufferView":4,
			"componentType":5123,
			"count":34560,
			"type":"SCALAR"
		}
	],
	"bufferViews":[
		{
			"buffer":0,
			"byteLength":78144,
			"byteOffset":0,
			"target":34962
		},
		{
			"buffer":0,
			"byteLength":78144,
			"byteOffset":78144,
			"target":34962
		},
		{
			"buffer":0,
			"byteLength":52096,
			"byteOffset":156288,
			"target":34962
		},
		{
			"buffer":0,
			"byteLength":104192,
			"byteOffset":208384,
			"target":34962
		},
		{
			"buffer":0,
			"byteLength":69120,
			"byteOffset":312576,
			"target":34963
		}
	],
	"samplers":[
		{
			"magFilter":9729,
			"minFilter":9987
		}
	],
	"buffers":[
		{
			"byteLength":381696,
			"uri":"SoccerBall.bin"
		}
	]
}
